<svg width="375" height="423" viewBox="0 0 375 423" fill="none" xmlns="http://www.w3.org/2000/svg">
<g clip-path="url(#clip0_80_7)">
<g filter="url(#filter0_d_80_7)">
<path d="M-51.5402 110.61L19.2038 181.37C28.4899 190.658 39.5149 198.027 51.649 203.054C63.7831 208.081 76.7886 210.668 89.9228 210.668H100.953C114.087 210.668 127.093 213.255 139.227 218.282C151.361 223.309 162.386 230.678 171.672 239.966L247.39 315.702C256.676 324.99 267.701 332.359 279.835 337.386C291.969 342.413 304.975 345 318.109 345H539.78C567.287 345 589.585 322.701 589.585 295.195C589.585 281.988 584.339 269.322 575.002 259.982L522.167 207.134C514.808 199.774 514.81 187.84 522.17 180.481C525.704 176.948 530.497 174.963 535.495 174.963C545.903 174.963 554.341 166.525 554.341 156.117C554.341 151.12 552.356 146.327 548.823 142.792L440.747 34.691C431.461 25.4025 420.435 18.0343 408.301 13.0073C396.167 7.98026 383.161 5.39292 370.027 5.393H258.013C245.148 5.39295 232.41 2.85871 220.525 -2.065C208.64 -6.98871 197.841 -14.2054 188.746 -23.303C179.65 -32.401 168.851 -39.618 156.966 -44.5419C145.081 -49.4658 132.342 -52.0001 119.477 -52L-9.06021 -52C-28.4952 -52 -44.2502 -36.245 -44.2502 -16.81C-44.2502 -7.47852 -40.5438 1.47087 -33.9462 8.07L-16.3502 25.669C-6.63522 35.386 -6.63721 51.139 -16.3542 60.854C-21.0198 65.5184 -27.3469 68.1388 -33.9442 68.139C-47.6862 68.139 -58.8242 79.279 -58.8242 93.019C-58.8243 99.6162 -56.2043 105.943 -51.5402 110.609V110.61Z" fill="#273C4D"/>
</g>
<path d="M-51.5402 110.61L19.2038 181.37C28.4899 190.658 39.5149 198.027 51.649 203.054C63.7831 208.081 76.7886 210.668 89.9228 210.668H100.953C114.087 210.668 127.093 213.255 139.227 218.282C151.361 223.309 162.386 230.678 171.672 239.966L247.39 315.702C256.676 324.99 267.701 332.359 279.835 337.386C291.969 342.413 304.975 345 318.109 345H539.78C567.287 345 589.585 322.701 589.585 295.195C589.585 281.988 584.339 269.322 575.002 259.982L522.167 207.134C514.808 199.774 514.81 187.84 522.17 180.481C525.704 176.948 530.497 174.963 535.495 174.963C545.903 174.963 554.341 166.525 554.341 156.117C554.341 151.12 552.356 146.327 548.823 142.792L440.747 34.691C431.461 25.4025 420.435 18.0343 408.301 13.0073C396.167 7.98026 383.161 5.39292 370.027 5.393H258.013C245.148 5.39295 232.41 2.85871 220.525 -2.065C208.64 -6.98871 197.841 -14.2054 188.746 -23.303C179.65 -32.401 168.851 -39.618 156.966 -44.5419C145.081 -49.4658 132.342 -52.0001 119.477 -52L-9.06021 -52C-28.4952 -52 -44.2502 -36.245 -44.2502 -16.81C-44.2502 -7.47852 -40.5438 1.47087 -33.9462 8.07L-16.3502 25.669C-6.63522 35.386 -6.63721 51.139 -16.3542 60.854C-21.0198 65.5184 -27.3469 68.1388 -33.9442 68.139C-47.6862 68.139 -58.8242 79.279 -58.8242 93.019C-58.8243 99.6162 -56.2043 105.943 -51.5402 110.609V110.61Z" fill="#273C4D"/>
<path fill-rule="evenodd" clip-rule="evenodd" d="M162.46 111.61L233.204 182.37C242.49 191.658 253.515 199.027 265.649 204.054C277.783 209.081 290.789 211.668 303.923 211.668H314.953C328.087 211.668 341.093 214.255 353.227 219.282C365.361 224.309 376.386 231.678 385.672 240.966L461.39 316.702C470.676 325.99 481.701 333.359 493.835 338.386C505.969 343.413 518.975 346 532.109 346H753.78C781.287 346 803.585 323.701 803.585 296.195C803.585 282.988 798.339 270.322 789.002 260.982L736.167 208.134C728.808 200.774 728.81 188.84 736.17 181.481C739.704 177.948 744.497 175.963 749.495 175.963C759.903 175.963 768.341 167.525 768.341 157.117C768.341 152.12 766.356 147.327 762.823 143.792L654.747 35.691C645.461 26.4025 634.435 19.0343 622.301 14.0073C610.167 8.98026 597.161 6.39292 584.027 6.393H472.013C459.148 6.39295 446.41 3.85871 434.525 -1.065C422.64 -5.98871 411.841 -13.2054 402.746 -22.303C393.65 -31.401 382.851 -38.618 370.966 -43.5419C359.081 -48.4658 346.342 -51.0001 333.477 -51H204.94C185.505 -51 169.75 -35.245 169.75 -15.81C169.75 -6.47852 173.456 2.47087 180.054 9.07L197.649 26.669C207.364 36.386 207.362 52.139 197.645 61.854C192.979 66.5184 186.652 69.1388 180.055 69.139C166.313 69.139 155.175 80.279 155.175 94.019C155.175 100.616 157.795 106.943 162.459 111.609L162.46 111.61Z" fill="url(#paint0_linear_80_7)"/>
</g>
<defs>
<filter id="filter0_d_80_7" x="-135.824" y="-127" width="802.408" height="551" filterUnits="userSpaceOnUse" color-interpolation-filters="sRGB">
<feFlood flood-opacity="0" result="BackgroundImageFix"/>
<feColorMatrix in="SourceAlpha" type="matrix" values="0 0 0 0 0 0 0 0 0 0 0 0 0 0 0 0 0 0 127 0" result="hardAlpha"/>
<feOffset dy="2"/>
<feGaussianBlur stdDeviation="38.5"/>
<feColorMatrix type="matrix" values="0 0 0 0 0 0 0 0 0 0 0 0 0 0 0 0 0 0 0.0240111 0"/>
<feBlend mode="normal" in2="BackgroundImageFix" result="effect1_dropShadow_80_7"/>
<feBlend mode="normal" in="SourceGraphic" in2="effect1_dropShadow_80_7" result="shape"/>
</filter>
<linearGradient id="paint0_linear_80_7" x1="155.175" y1="92.4718" x2="732.189" y2="353.734" gradientUnits="userSpaceOnUse">
<stop stop-color="#85238A"/>
<stop offset="0.59375" stop-color="#F48C06"/>
<stop offset="0.994792" stop-color="#AC1FAE"/>
</linearGradient>
<clipPath id="clip0_80_7">
<rect width="375" height="423" fill="white"/>
</clipPath>
</defs>
</svg>
