<svg width="496" height="496" viewBox="0 0 496 496" fill="none" xmlns="http://www.w3.org/2000/svg">
<rect width="496" height="496" fill="#FFFEFB"/>
<path d="M149.668 344.164C151.114 368.754 162.683 390.438 178.589 406.351C181.481 403.453 184.374 402 188.712 399.114C181.481 383.214 178.589 364.415 177.143 344.164H149.668V344.164Z" fill="#810070"/>
<path d="M190.157 344.164C191.603 361.517 194.495 378.863 200.28 393.317C207.51 390.438 214.74 387.54 221.971 386.1C220.525 370.18 219.079 354.28 219.079 344.164C220.525 344.164 190.157 344.164 190.157 344.164Z" fill="#810070"/>
<path d="M149.668 326.816H177.143C178.589 306.565 181.481 287.766 188.712 271.866C185.82 270.413 181.481 267.527 178.589 264.629C162.683 280.542 152.56 302.227 149.668 326.816Z" fill="#810070"/>
<path d="M188.711 415.026C193.049 417.912 197.387 420.811 201.726 423.703C198.833 419.365 195.941 416.479 194.495 412.141C193.049 412.141 191.603 413.574 188.711 415.026Z" fill="#810070"/>
<path d="M274.029 386.106C281.253 387.578 288.477 390.444 295.714 393.343C301.498 378.882 304.39 362.969 305.823 344.17H275.462C275.475 354.292 275.475 370.206 274.029 386.106Z" fill="#810070"/>
<path d="M295.733 277.656C288.497 280.542 281.273 283.441 274.049 284.88C275.495 300.793 276.934 316.694 276.934 326.816H305.849C304.39 309.457 301.505 292.104 295.733 277.656Z" fill="#810070"/>
<path d="M289.936 266.082C282.706 253.067 274.03 244.398 263.907 238.613C266.799 247.29 269.691 260.291 271.138 271.873C278.368 271.866 284.159 268.968 289.936 266.082Z" fill="#810070"/>
<path d="M201.726 248.736C197.387 251.622 193.049 254.521 188.711 257.406C190.157 258.859 191.603 260.292 194.495 261.744C197.387 255.954 200.279 251.622 201.726 248.736Z" fill="#810070"/>
<path d="M206.064 404.904C213.295 417.918 221.971 426.588 232.094 432.379C229.201 423.702 226.309 410.714 224.863 399.139C217.633 400.565 211.849 401.999 206.064 404.904Z" fill="#810070"/>
<path d="M259.569 274.758C256.677 254.519 252.338 241.511 249.446 237.16H248H246.554C243.662 242.944 239.324 255.959 236.432 274.758C240.77 274.758 243.662 274.758 248 274.758C252.338 274.758 255.23 274.758 259.569 274.758Z" fill="#810070"/>
<path d="M200.28 277.656C194.495 292.104 190.157 308.017 190.157 326.816H220.525C220.525 316.694 221.971 302.226 223.417 284.88C214.74 283.428 207.51 281.994 200.28 277.656Z" fill="#810070"/>
<path d="M206.064 266.083C211.849 268.968 217.633 270.421 223.417 271.867C224.863 258.833 227.755 247.284 230.648 238.607C221.971 244.385 213.295 254.521 206.064 266.083Z" fill="#810070"/>
<path d="M307.295 399.114C310.181 400.567 314.532 403.453 317.411 406.351C333.318 390.438 344.886 368.754 346.326 344.164H318.851C317.411 364.415 313.073 383.214 307.295 399.114Z" fill="#810070"/>
<path d="M294.274 422.251C298.613 419.365 302.957 416.467 307.295 413.575C305.843 412.116 304.41 410.689 301.511 409.236C298.613 415.027 295.733 419.365 294.274 422.251Z" fill="#810070"/>
<path d="M307.295 271.866C314.532 287.766 317.411 306.565 318.87 326.816H346.345C344.886 302.227 333.318 280.542 317.43 264.629C313.073 267.515 310.181 270.42 307.295 271.866Z" fill="#810070"/>
<path d="M336.21 203.895L435.988 0H60.0117L159.79 203.889C116.408 232.803 88.933 280.543 88.933 336.927C88.933 425.136 159.79 496 248 496C336.21 496 407.08 425.136 407.08 336.927C407.08 280.543 378.146 231.377 336.21 203.895ZM310.181 63.6268L320.303 43.3884L330.413 63.6268L353.55 66.5254L336.197 82.4257L340.535 105.563L320.297 95.4531L300.045 107.022L304.384 83.8846L287.031 67.9779L310.181 63.6268ZM294.274 125.82L317.411 128.713L301.504 146.065L305.843 169.202L285.598 159.08L265.34 169.202L269.678 146.065L252.325 130.159L275.462 127.267L285.585 107.022L294.274 125.82ZM237.878 63.6268L248 43.3884L258.116 63.6397L281.253 66.5254L263.907 82.4386L268.258 105.576L248 95.4531L227.755 107.022L232.093 83.8846L214.741 67.9779L237.878 63.6268ZM221.971 125.82L245.108 128.713L227.755 146.065L232.093 169.202L211.848 159.08L191.604 169.202L195.942 146.065L178.589 130.159L201.726 127.267L211.848 107.022L221.971 125.82ZM154.006 107.022L158.344 83.8846L140.991 67.9779L164.128 65.0858L174.251 44.8409L184.373 65.0858L207.51 67.9779L190.157 83.8846L194.496 107.022L175.697 95.4531L154.006 107.022ZM248 451.178C184.373 451.178 132.315 399.133 132.315 335.493C132.315 271.879 184.373 219.815 248 219.815C311.614 219.815 363.685 271.873 363.685 335.493C363.685 399.127 311.62 451.178 248 451.178Z" fill="#810070"/>
<path d="M301.504 260.291C302.957 258.832 305.843 257.406 307.289 255.953C302.95 253.067 298.606 250.169 294.268 247.283C295.733 251.621 298.612 255.953 301.504 260.291Z" fill="#810070"/>
<path d="M263.907 432.381C274.03 428.042 282.706 417.92 289.936 404.905C284.152 402.007 278.368 400.567 272.584 399.121C269.679 410.69 268.258 423.704 263.907 432.381Z" fill="#810070"/>
<path d="M236.432 396.229C239.324 416.48 243.662 429.488 246.554 433.826H248H249.446C252.338 428.042 256.677 415.027 259.569 396.229C255.23 396.229 252.338 396.229 248 396.229C243.662 396.229 240.77 396.229 236.432 396.229Z" fill="#810070"/>
<path d="M234.985 383.214C239.323 383.214 243.662 381.755 248 381.755C252.338 381.755 256.676 381.755 261.021 383.214C262.48 371.639 262.48 358.618 263.906 344.164H233.539C233.539 358.631 233.539 371.639 234.985 383.214Z" fill="#810070"/>
<path d="M248 289.22C243.662 289.22 239.323 289.22 234.985 287.768C233.539 299.343 233.539 312.357 233.539 326.818H262.454C262.454 312.357 261.001 299.343 259.568 287.768C256.676 287.768 252.338 289.22 248 289.22Z" fill="#810070"/>
</svg>
