<svg width="512" height="512" viewBox="0 0 512 512" fill="none" xmlns="http://www.w3.org/2000/svg">
<rect width="512" height="512" fill="#FFFEFB"/>
<path d="M120.916 297.717H28.741C23.108 297.717 18.542 302.284 18.542 307.916V501.802C18.542 507.434 23.108 512.001 28.741 512.001H120.916C126.549 512.001 131.115 507.434 131.115 501.802V307.916C131.115 302.284 126.549 297.717 120.916 297.717ZM110.717 491.603H38.94V318.115H110.716V491.603H110.717Z" fill="#810070"/>
<path d="M483.259 134.557H391.084C385.451 134.557 380.885 139.124 380.885 144.756V501.8C380.885 507.432 385.451 511.999 391.084 511.999H483.259C488.892 511.999 493.458 507.432 493.458 501.8V144.756C493.458 139.123 488.892 134.557 483.259 134.557ZM473.06 491.602H401.284V154.955H473.06V491.602Z" fill="#810070"/>
<path d="M302.087 218.256H209.912C204.279 218.256 199.713 222.823 199.713 228.455V501.801C199.713 507.433 204.279 512 209.912 512H302.087C307.72 512 312.286 507.433 312.286 501.801V228.455C312.286 222.823 307.72 218.256 302.087 218.256ZM291.888 491.603H220.112V238.655H291.888V491.603Z" fill="#810070"/>
<path d="M453.063 298.775C447.43 298.775 442.864 303.342 442.864 308.974V318.509C442.864 324.141 447.43 328.708 453.063 328.708C458.696 328.708 463.262 324.141 463.262 318.509V308.974C463.262 303.342 458.696 298.775 453.063 298.775Z" fill="#810070"/>
<path d="M453.063 345.389C447.43 345.389 442.864 349.956 442.864 355.588V471.075C442.864 476.708 447.43 481.275 453.063 481.275C458.696 481.275 463.262 476.708 463.262 471.076V355.588C463.262 349.956 458.696 345.389 453.063 345.389Z" fill="#810070"/>
<path d="M444.52 14.385L397.705 0.42797C392.307 -1.18203 386.626 1.89097 385.017 7.28797C383.408 12.686 386.479 18.366 391.877 19.976L413.511 26.426L248.953 138.948L68.7051 215.896C63.5251 218.108 61.1181 224.1 63.3291 229.28C64.9831 233.155 68.7521 235.478 72.7141 235.478C74.0491 235.478 75.4081 235.213 76.7131 234.656L257.884 157.314C258.498 157.051 259.085 156.73 259.636 156.353L425.33 43.057L419.465 62.729C417.856 68.127 420.927 73.807 426.325 75.417C427.297 75.707 428.278 75.845 429.243 75.845C433.637 75.845 437.694 72.982 439.013 68.557L451.38 27.073C452.99 21.674 449.919 15.994 444.52 14.385Z" fill="#810070"/>
</svg>
