<svg width="752" height="665" viewBox="0 0 752 665" fill="none" xmlns="http://www.w3.org/2000/svg">
<g filter="url(#filter0_d_82_2)">
<path d="M83.9718 234.396L159.674 314.905C170.246 326.148 184.584 332.464 199.534 332.464H239.387C254.337 332.464 268.676 338.781 279.248 350.025L370.032 446.575C380.604 457.819 394.941 464.135 409.891 464.136H629.103C654.451 464.136 675 442.281 675 415.321C675 408.91 673.813 402.562 671.506 396.639C669.199 390.717 665.818 385.335 661.556 380.802L612.853 329.006C606.07 321.791 606.069 310.095 612.852 302.879C614.465 301.163 616.38 299.803 618.488 298.874C620.595 297.946 622.854 297.468 625.135 297.468C634.728 297.468 642.505 289.196 642.505 278.993C642.505 274.093 640.675 269.394 637.417 265.929L527.299 148.816C516.727 137.572 502.389 131.256 487.438 131.256H355.274C340.324 131.256 325.985 124.939 315.413 113.695L295.54 92.5597C284.968 81.3164 270.63 75.0001 255.679 75H123.115C105.206 75 90.6871 90.4419 90.6871 109.49C90.6872 114.02 91.5261 118.505 93.1559 122.69C94.7858 126.874 97.1746 130.677 100.186 133.879L116.4 151.124C125.355 160.648 125.356 176.091 116.401 185.615C114.272 187.88 111.744 189.677 108.962 190.903C106.18 192.129 103.198 192.76 100.186 192.76C87.5217 192.76 77.2549 203.679 77.2549 217.149C77.2548 220.352 77.848 223.523 79.0005 226.483C80.153 229.442 81.8423 232.131 83.9718 234.395V234.396Z" fill="#273C4D"/>
</g>
<path fill-rule="evenodd" clip-rule="evenodd" d="M81.717 435.26L157.419 515.769C167.991 527.012 182.329 533.329 197.28 533.328H237.132C252.083 533.329 266.421 539.645 276.993 550.889L367.777 647.44C378.349 658.683 392.686 665 407.637 665H626.848C652.196 665 672.745 643.145 672.745 616.185C672.745 609.774 671.558 603.426 669.251 597.504C666.944 591.581 663.563 586.199 659.301 581.667L610.599 529.87C603.815 522.656 603.814 510.959 610.597 503.743C612.21 502.028 614.125 500.667 616.233 499.738C618.34 498.81 620.599 498.332 622.88 498.332C632.473 498.332 640.25 490.061 640.25 479.857C640.25 474.957 638.42 470.258 635.162 466.793L525.044 349.68C514.472 338.437 500.134 332.12 485.183 332.12H353.019C338.069 332.12 323.73 325.803 313.158 314.56L293.285 293.424C282.713 282.181 268.375 275.864 253.425 275.864H120.86C102.951 275.864 88.4322 291.306 88.4322 310.355C88.4323 314.884 89.2712 319.369 90.901 323.554C92.5309 327.739 94.9197 331.541 97.9312 334.744L114.145 351.988C123.1 361.512 123.101 376.955 114.147 386.48C112.017 388.745 109.489 390.541 106.707 391.767C103.925 392.993 100.943 393.624 97.9312 393.624C85.2668 393.624 75 404.543 75 418.013C75 421.216 75.5931 424.388 76.7456 427.347C77.8981 430.306 79.5874 432.995 81.717 435.26V435.26Z" fill="url(#paint0_linear_82_2)"/>
<defs>
<filter id="filter0_d_82_2" x="0.254883" y="0" width="751.745" height="543.136" filterUnits="userSpaceOnUse" color-interpolation-filters="sRGB">
<feFlood flood-opacity="0" result="BackgroundImageFix"/>
<feColorMatrix in="SourceAlpha" type="matrix" values="0 0 0 0 0 0 0 0 0 0 0 0 0 0 0 0 0 0 127 0" result="hardAlpha"/>
<feOffset dy="2"/>
<feGaussianBlur stdDeviation="38.5"/>
<feColorMatrix type="matrix" values="0 0 0 0 0 0 0 0 0 0 0 0 0 0 0 0 0 0 0.0240111 0"/>
<feBlend mode="normal" in2="BackgroundImageFix" result="effect1_dropShadow_82_2"/>
<feBlend mode="normal" in="SourceGraphic" in2="effect1_dropShadow_82_2" result="shape"/>
</filter>
<linearGradient id="paint0_linear_82_2" x1="75" y1="416.525" x2="617.643" y2="647.462" gradientUnits="userSpaceOnUse">
<stop stop-color="#810070"/>
<stop offset="0.578125" stop-color="#F48C06"/>
<stop offset="1" stop-color="#810070"/>
</linearGradient>
</defs>
</svg>
