<svg width="518" height="414" viewBox="0 0 518 414" fill="none" xmlns="http://www.w3.org/2000/svg">
<path fill-rule="evenodd" clip-rule="evenodd" d="M108.338 139.699L157.223 193.087C164.05 200.543 173.309 204.731 182.963 204.731H208.698C218.353 204.731 227.612 208.92 234.439 216.376L293.064 280.401C299.891 287.857 309.149 292.045 318.803 292.046H460.362C476.73 292.046 490 277.553 490 259.675C490 255.424 489.233 251.215 487.744 247.287C486.254 243.36 484.071 239.791 481.318 236.785L449.868 202.438C445.488 197.654 445.487 189.897 449.867 185.112C450.909 183.975 452.146 183.072 453.507 182.457C454.867 181.841 456.326 181.524 457.799 181.524C463.994 181.524 469.016 176.039 469.016 169.273C469.016 166.024 467.834 162.907 465.731 160.61L394.621 82.9492C387.794 75.4933 378.535 71.3046 368.88 71.3045H283.534C273.879 71.3045 264.62 67.1158 257.793 59.6599L244.96 45.6443C238.133 38.1886 228.874 34 219.219 34H133.615C122.049 34 112.674 44.2399 112.674 56.8715C112.674 59.8751 113.216 62.8493 114.268 65.6243C115.321 68.3993 116.863 70.9207 118.808 73.0445L129.278 84.4796C135.061 90.7952 135.062 101.036 129.279 107.352C127.904 108.854 126.272 110.045 124.475 110.858C122.678 111.671 120.753 112.089 118.808 112.089C110.63 112.089 104 119.33 104 128.262C104 130.386 104.383 132.49 105.127 134.452C105.872 136.414 106.962 138.197 108.338 139.699V139.699Z" fill="url(#paint0_linear_82_2)"/>
<g filter="url(#filter0_d_82_2)">
<path d="M81.0903 181.5L127.189 235.291C133.627 242.804 142.359 247.024 151.463 247.024H175.731C184.835 247.024 193.567 251.244 200.005 258.757L255.288 323.267C261.726 330.779 270.457 335 279.561 335H413.051C428.487 335 441 320.398 441 302.384C441 298.101 440.277 293.859 438.872 289.902C437.468 285.945 435.409 282.349 432.813 279.321L403.156 244.713C399.025 239.893 399.024 232.078 403.155 227.257C404.137 226.11 405.303 225.201 406.586 224.581C407.87 223.96 409.245 223.641 410.634 223.641C416.476 223.641 421.212 218.115 421.212 211.297C421.212 208.023 420.098 204.883 418.114 202.569L351.057 124.32C344.619 116.807 335.888 112.587 326.783 112.587H246.301C237.197 112.587 228.466 108.367 222.028 100.854L209.926 86.7325C203.488 79.2203 194.757 75 185.653 75H104.927C94.0208 75 85.1796 85.3175 85.1796 98.0447C85.1797 101.071 85.6905 104.068 86.683 106.864C87.6755 109.66 89.1302 112.2 90.9641 114.34L100.838 125.862C106.291 132.225 106.291 142.544 100.839 148.907C99.5418 150.421 98.0024 151.621 96.3081 152.44C94.6139 153.259 92.798 153.681 90.9641 153.681C83.252 153.681 77 160.976 77 169.976C77 172.116 77.3612 174.235 78.063 176.213C78.7648 178.19 79.7935 179.986 81.0903 181.499V181.5Z" fill="#273C4D"/>
</g>
<defs>
<filter id="filter0_d_82_2" x="0" y="0" width="518" height="414" filterUnits="userSpaceOnUse" color-interpolation-filters="sRGB">
<feFlood flood-opacity="0" result="BackgroundImageFix"/>
<feColorMatrix in="SourceAlpha" type="matrix" values="0 0 0 0 0 0 0 0 0 0 0 0 0 0 0 0 0 0 127 0" result="hardAlpha"/>
<feOffset dy="2"/>
<feGaussianBlur stdDeviation="38.5"/>
<feColorMatrix type="matrix" values="0 0 0 0 0 0 0 0 0 0 0 0 0 0 0 0 0 0 0.0240111 0"/>
<feBlend mode="normal" in2="BackgroundImageFix" result="effect1_dropShadow_82_2"/>
<feBlend mode="normal" in="SourceGraphic" in2="effect1_dropShadow_82_2" result="shape"/>
</filter>
<linearGradient id="paint0_linear_82_2" x1="104" y1="127.276" x2="457.217" y2="273.66" gradientUnits="userSpaceOnUse">
<stop stop-color="#810070"/>
<stop offset="0.578125" stop-color="#F48C06"/>
<stop offset="1" stop-color="#810070"/>
</linearGradient>
</defs>
</svg>
