<svg width="539" height="446" viewBox="0 0 539 446" fill="none" xmlns="http://www.w3.org/2000/svg">
<g filter="url(#filter0_d_82_2)">
<path d="M81.8371 194.294L130.53 254.548C137.33 262.963 146.553 267.69 156.17 267.69H181.804C191.42 267.69 200.643 272.417 207.443 280.832L265.838 353.092C272.638 361.507 281.86 366.235 291.476 366.235H432.478C448.782 366.235 462 349.878 462 329.701C462 324.903 461.236 320.152 459.752 315.72C458.269 311.287 456.094 307.259 453.352 303.867L422.026 265.102C417.663 259.702 417.662 250.948 422.025 245.548C423.063 244.264 424.294 243.246 425.65 242.551C427.005 241.856 428.458 241.498 429.926 241.498C436.096 241.498 441.098 235.308 441.098 227.671C441.098 224.004 439.921 220.487 437.826 217.894L366.995 130.245C360.195 121.83 350.973 117.103 341.356 117.103H256.345C246.728 117.103 237.506 112.375 230.706 103.96L217.922 88.1419C211.122 79.7273 201.9 75 192.283 75H107.015C95.4952 75 86.1565 86.557 86.1565 100.813C86.1565 104.203 86.6961 107.56 87.7445 110.692C88.7929 113.824 90.3294 116.669 92.2665 119.066L102.696 131.972C108.456 139.1 108.456 150.658 102.697 157.786C101.327 159.481 99.7009 160.826 97.9113 161.743C96.1217 162.661 94.2036 163.133 92.2665 163.133C84.1205 163.133 77.5166 171.305 77.5166 181.386C77.5166 183.783 77.8981 186.157 78.6394 188.372C79.3808 190.586 80.4673 192.599 81.8371 194.294V194.294Z" fill="#273C4D"/>
</g>
<path fill-rule="evenodd" clip-rule="evenodd" d="M80.3375 217.654L129.223 271.041C136.05 278.497 145.309 282.685 154.963 282.685H180.698C190.353 282.685 199.612 286.874 206.439 294.33L265.064 358.355C271.891 365.811 281.149 370 290.803 370H432.362C448.73 370 462 355.507 462 337.629C462 333.378 461.233 329.169 459.744 325.241C458.254 321.314 456.071 317.745 453.318 314.739L421.868 280.392C417.488 275.608 417.487 267.851 421.867 263.066C422.909 261.929 424.146 261.026 425.507 260.411C426.867 259.795 428.326 259.478 429.799 259.478C435.994 259.478 441.016 253.993 441.016 247.227C441.016 243.978 439.834 240.861 437.731 238.564L366.621 160.903C359.794 153.447 350.535 149.259 340.88 149.259H255.534C245.879 149.259 236.62 145.07 229.793 137.614L216.96 123.598C210.133 116.143 200.874 111.954 191.219 111.954H105.615C94.0495 111.954 84.674 122.194 84.674 134.826C84.674 137.829 85.2158 140.803 86.2682 143.578C87.3207 146.353 88.8634 148.875 90.8081 150.999L101.278 162.434C107.061 168.749 107.062 178.99 101.279 185.306C99.9043 186.808 98.2718 187.999 96.4751 188.812C94.6785 189.625 92.7528 190.043 90.8081 190.043C82.6299 190.043 76 197.284 76 206.216C76 208.34 76.383 210.444 77.1273 212.406C77.8715 214.368 78.9624 216.151 80.3375 217.653V217.654Z" fill="url(#paint0_linear_82_2)"/>
<defs>
<filter id="filter0_d_82_2" x="0.516602" y="0" width="538.483" height="445.235" filterUnits="userSpaceOnUse" color-interpolation-filters="sRGB">
<feFlood flood-opacity="0" result="BackgroundImageFix"/>
<feColorMatrix in="SourceAlpha" type="matrix" values="0 0 0 0 0 0 0 0 0 0 0 0 0 0 0 0 0 0 127 0" result="hardAlpha"/>
<feOffset dy="2"/>
<feGaussianBlur stdDeviation="38.5"/>
<feColorMatrix type="matrix" values="0 0 0 0 0 0 0 0 0 0 0 0 0 0 0 0 0 0 0.0240111 0"/>
<feBlend mode="normal" in2="BackgroundImageFix" result="effect1_dropShadow_82_2"/>
<feBlend mode="normal" in="SourceGraphic" in2="effect1_dropShadow_82_2" result="shape"/>
</filter>
<linearGradient id="paint0_linear_82_2" x1="76" y1="205.23" x2="429.217" y2="351.615" gradientUnits="userSpaceOnUse">
<stop stop-color="#810070"/>
<stop offset="0.578125" stop-color="#F48C06"/>
<stop offset="1" stop-color="#810070"/>
</linearGradient>
</defs>
</svg>
