<svg width="699" height="651" viewBox="0 0 699 651" fill="none" xmlns="http://www.w3.org/2000/svg">
<path fill-rule="evenodd" clip-rule="evenodd" d="M341.639 33.3247C265.936 9.63172 188.096 -29.8873 108.404 42.2947C28.7099 114.477 -21.3901 177.709 10.9639 259.522C43.3179 341.336 175.386 290.377 213.758 363.499C252.131 436.621 167.818 502.984 204.167 568.062C240.517 633.14 268.467 674.849 385.282 633.471C502.098 592.092 491.327 486.807 580.16 425.153C668.993 363.499 765.104 271.2 633.206 106.506C501.308 -58.1883 417.341 57.0197 341.64 33.3257L341.639 33.3247Z" stroke="#85238A"/>
<path fill-rule="evenodd" clip-rule="evenodd" d="M351.105 71.249C289.522 52.009 226.2 19.919 161.371 78.532C96.5431 137.146 55.7861 188.491 82.1051 254.925C108.425 321.359 215.86 279.98 247.076 339.355C278.292 398.732 209.704 452.621 239.274 505.465C268.844 558.31 291.58 592.178 386.608 558.578C481.636 524.978 472.875 439.484 545.138 389.42C617.403 339.356 695.588 264.408 588.291 130.673C480.994 -3.06203 412.688 90.489 351.105 71.249Z" stroke="#85238A"/>
<path fill-rule="evenodd" clip-rule="evenodd" d="M368.812 96.4169C318.85 80.7199 267.478 54.5349 214.883 102.36C162.289 150.185 129.223 192.08 150.576 246.286C171.929 300.492 259.089 266.729 284.414 315.176C309.739 363.624 254.094 407.594 278.084 450.712C302.074 493.829 320.52 521.464 397.615 494.048C474.71 466.633 467.602 396.875 526.229 356.026C584.856 315.176 648.287 254.023 561.238 144.904C474.189 35.7839 418.773 112.116 368.812 96.4169V96.4169Z" stroke="#85238A"/>
<path fill-rule="evenodd" clip-rule="evenodd" d="M387.316 127.184C347.021 114.588 305.588 93.5809 263.169 131.952C220.75 170.323 194.082 203.936 211.304 247.427C228.525 290.918 298.822 263.829 319.247 302.7C339.672 341.57 294.794 376.848 314.142 411.443C333.49 446.038 348.367 468.21 410.546 446.213C472.725 424.217 466.992 368.248 514.276 335.474C561.56 302.7 612.718 253.635 542.512 166.086C472.305 78.5359 427.611 139.779 387.316 127.184V127.184Z" stroke="#85238A"/>
<path fill-rule="evenodd" clip-rule="evenodd" d="M392.083 147.046C359.173 136.751 325.334 119.579 290.69 150.943C256.047 182.308 234.266 209.783 248.332 245.332C262.397 280.881 319.809 258.739 336.49 290.511C353.172 322.283 316.519 351.12 332.32 379.397C348.123 407.674 360.273 425.797 411.055 407.817C461.837 389.838 457.155 344.09 495.773 317.301C534.39 290.511 576.171 250.406 518.833 178.844C461.494 107.282 424.992 157.341 392.083 147.046V147.046Z" stroke="#85238A"/>
<path fill-rule="evenodd" clip-rule="evenodd" d="M401.225 161.406C374.507 153.046 347.034 139.101 318.907 164.571C290.78 190.041 273.097 212.351 284.517 241.22C295.936 270.088 342.547 252.107 356.091 277.908C369.635 303.708 339.877 327.125 352.706 350.088C365.536 373.051 375.4 387.768 416.629 373.168C457.858 358.568 454.057 321.418 485.409 299.663C516.762 277.908 550.684 245.34 504.132 187.228C457.579 129.116 427.944 169.766 401.225 161.406V161.406Z" stroke="#85238A"/>
</svg>
