<svg width="1202" height="902" viewBox="0 0 1202 902" fill="none" xmlns="http://www.w3.org/2000/svg">
<path fill-rule="evenodd" clip-rule="evenodd" d="M587.466 45.8263C457.131 12.97 323.116 -41.8329 185.914 58.2654C48.7072 158.364 -37.5482 246.051 18.1545 359.505C73.8573 472.96 301.234 402.293 367.298 503.695C433.363 605.097 288.205 697.126 350.785 787.373C413.368 877.62 461.488 935.46 662.605 878.079C863.723 820.696 845.179 674.692 998.119 589.194C1151.06 503.695 1316.53 375.699 1089.45 147.31C862.363 -81.0793 717.8 78.6853 587.468 45.8277L587.466 45.8263Z" stroke="#85238A"/>
<path fill-rule="evenodd" clip-rule="evenodd" d="M603.764 98.4174C497.738 71.7363 388.719 27.2355 277.105 108.517C165.493 189.8 95.3234 261.003 140.636 353.13C185.95 445.257 370.917 387.875 424.661 470.213C478.404 552.554 360.319 627.285 411.228 700.566C462.138 773.849 501.282 820.816 664.888 774.221C828.494 727.626 813.411 609.067 937.824 539.641C1062.24 470.215 1196.85 366.281 1012.12 180.824C827.389 -4.6334 709.789 125.098 603.764 98.4174Z" stroke="#85238A"/>
<path fill-rule="evenodd" clip-rule="evenodd" d="M634.249 133.319C548.231 111.551 459.786 75.2391 369.235 141.56C278.686 207.882 221.757 265.98 258.52 341.15C295.282 416.32 445.343 369.499 488.944 436.683C532.545 503.868 436.743 564.844 478.046 624.637C519.349 684.43 551.106 722.753 683.838 684.734C816.57 646.716 804.332 549.979 905.268 493.332C1006.2 436.683 1115.41 351.879 965.542 200.558C815.673 49.2362 720.265 155.09 634.249 133.319V133.319Z" stroke="#85238A"/>
<path fill-rule="evenodd" clip-rule="evenodd" d="M666.106 175.985C596.732 158.518 525.398 129.386 452.367 182.597C379.336 235.808 333.422 282.421 363.073 342.732C392.722 403.043 513.749 365.478 548.914 419.382C584.079 473.285 506.815 522.207 540.125 570.181C573.436 618.156 599.049 648.903 706.101 618.398C813.152 587.896 803.282 510.281 884.689 464.831C966.096 419.382 1054.17 351.341 933.302 229.932C812.429 108.522 735.481 193.451 666.106 175.985V175.985Z" stroke="#85238A"/>
<path fill-rule="evenodd" clip-rule="evenodd" d="M674.313 203.529C617.653 189.252 559.394 165.439 499.749 208.933C440.105 252.428 402.605 290.529 426.822 339.827C451.038 389.125 549.882 358.419 578.601 402.479C607.322 446.539 544.218 486.528 571.422 525.742C598.629 564.955 619.547 590.087 706.977 565.153C794.406 540.221 786.346 476.78 852.833 439.63C919.318 402.479 991.251 346.863 892.534 247.625C793.816 148.386 730.972 217.805 674.313 203.529V203.529Z" stroke="#85238A"/>
<path fill-rule="evenodd" clip-rule="evenodd" d="M690.054 223.443C644.054 211.85 596.755 192.512 548.33 227.832C499.904 263.153 469.46 294.091 489.122 334.125C508.781 374.158 589.03 349.223 612.348 385.002C635.666 420.781 584.433 453.254 606.52 485.098C628.609 516.942 645.592 537.351 716.574 517.104C787.557 496.858 781.013 445.34 834.99 415.171C888.97 385.002 947.372 339.839 867.225 259.252C787.076 178.665 736.055 235.037 690.054 223.443V223.443Z" stroke="#85238A"/>
</svg>
