<svg width="496" height="496" viewBox="0 0 496 496" fill="none" xmlns="http://www.w3.org/2000/svg">
<rect width="496" height="496" fill="#FFFEFB"/>
<path d="M184 448H104V464H184V448Z" fill="#810070"/>
<path d="M336.408 256C340.44 296.368 374.592 328 416 328C460.112 328 496 292.112 496 248C496 203.888 460.112 168 416 168C374.592 168 340.432 199.632 336.408 240H320V88H336.408C340.44 128.368 374.592 160 416 160C460.112 160 496 124.112 496 80C496 35.888 460.112 0 416 0C374.592 0 340.432 31.632 336.408 72H304V240H288V40C288 17.944 270.056 0 248 0H40C17.944 0 0 17.944 0 40V456C0 478.056 17.944 496 40 496H248C270.056 496 288 478.056 288 456V256H304V424H336.408C340.44 464.368 374.592 496 416 496C460.112 496 496 460.112 496 416C496 371.888 460.112 336 416 336C374.592 336 340.432 367.632 336.408 408H320V256H336.408ZM416 184C451.288 184 480 212.712 480 248C480 283.288 451.288 312 416 312C380.712 312 352 283.288 352 248C352 212.712 380.712 184 416 184ZM416 16C451.288 16 480 44.712 480 80C480 115.288 451.288 144 416 144C380.712 144 352 115.288 352 80C352 44.712 380.712 16 416 16ZM272 456C272 469.232 261.232 480 248 480H40C26.768 480 16 469.232 16 456V432H272V456ZM272 240H255.592C251.464 181.976 203.056 136 144 136C82.24 136 32 186.24 32 248C32 309.76 82.24 360 144 360C203.056 360 251.464 314.024 255.592 256H272V416H16V64H272V240ZM194.568 191.488C187.056 176.384 177.544 164.336 169.088 155.44C186.288 160.112 201.568 169.408 213.504 181.968C209.6 184.592 203.336 188.184 194.568 191.488ZM223.64 194.456C232.56 207.68 238.2 223.24 239.592 240H207.6C206.816 227.728 204.336 216.488 200.736 206.312C211.336 202.264 218.936 197.76 223.64 194.456ZM178.752 196.224C171.024 198 162.128 199.32 152 199.792V161.12C160.072 168.832 170.536 180.728 178.752 196.224ZM185.344 211.112C188.544 219.896 190.792 229.528 191.584 240H152V215.784C164.776 215.248 175.848 213.496 185.344 211.112ZM191.584 256C190.792 266.472 188.544 276.104 185.344 284.888C175.848 282.504 164.776 280.752 152 280.216V256H191.584ZM178.752 299.784C170.536 315.28 160.072 327.176 152 334.888V296.216C162.128 296.68 171.024 298.008 178.752 299.784ZM194.576 304.512C203.336 307.816 209.608 311.416 213.512 314.032C201.576 326.592 186.296 335.896 169.096 340.56C177.544 331.664 187.056 319.616 194.576 304.512ZM200.736 289.688C204.336 279.512 206.816 268.272 207.6 256H239.6C238.2 272.76 232.56 288.328 223.64 301.544C218.936 298.24 211.336 293.736 200.736 289.688ZM87.264 206.312C83.664 216.488 81.184 227.728 80.4 240H48.4C49.8 223.24 55.44 207.672 64.36 194.456C69.064 197.76 76.664 202.264 87.264 206.312ZM74.488 181.968C86.424 169.408 101.704 160.112 118.904 155.44C110.456 164.336 100.944 176.384 93.424 191.488C84.664 188.184 78.392 184.584 74.488 181.968ZM80.4 256C81.184 268.272 83.664 279.512 87.264 289.688C76.664 293.736 69.064 298.24 64.36 301.544C55.44 288.328 49.8 272.76 48.408 256H80.4ZM93.424 304.512C100.944 319.616 110.456 331.672 118.904 340.56C101.704 335.888 86.424 326.592 74.488 314.032C78.4 311.408 84.664 307.816 93.424 304.512ZM109.248 299.776C116.976 298 125.872 296.68 136 296.208V334.88C127.928 327.168 117.464 315.272 109.248 299.776ZM102.656 284.888C99.456 276.104 97.208 266.472 96.416 256H136V280.216C123.224 280.752 112.152 282.504 102.656 284.888ZM96.416 240C97.208 229.528 99.456 219.896 102.656 211.112C112.152 213.496 123.224 215.248 136 215.784V240H96.416ZM109.248 196.216C117.464 180.72 127.928 168.824 136 161.112V199.784C125.872 199.32 116.976 197.992 109.248 196.216ZM272 48H16V40C16 26.768 26.768 16 40 16H248C261.232 16 272 26.768 272 40V48ZM416 352C451.288 352 480 380.712 480 416C480 451.288 451.288 480 416 480C380.712 480 352 451.288 352 416C352 380.712 380.712 352 416 352Z" fill="#810070"/>
<path d="M408 128H424V88H448V72H424V48H448V32H408V72H384V88H408V128Z" fill="#810070"/>
<path d="M408 464H448V448H424V400H440V384H424V368H408V384H392V400H408V464Z" fill="#810070"/>
<path d="M392 232H376V288H392V232Z" fill="#810070"/>
<path d="M392 200H376V216H392V200Z" fill="#810070"/>
<path d="M424 260C424 253.384 429.384 248 436 248C442.616 248 448 253.384 448 260V288H464V260C464 244.56 451.44 232 436 232C431.712 232 427.64 232.968 424 234.704V232H408V288H424V260Z" fill="#810070"/>
</svg>
