<svg width="496" height="496" viewBox="0 0 496 496" fill="none" xmlns="http://www.w3.org/2000/svg">
<g clip-path="url(#clip0_90_208)">
<rect width="496" height="496" fill="#FFFEFB"/>
<path d="M371.989 107.315C371.989 114.566 379.247 121.817 389.393 121.817C403.889 121.817 408.24 116.016 408.24 107.315C408.24 105.864 408.24 105.864 408.24 104.421C406.796 100.07 402.439 97.1692 398.101 94.2686C396.644 94.2686 393.75 92.8184 390.856 92.8184C380.691 92.8248 371.989 98.6195 371.989 107.315Z" fill="#810070"/>
<path d="M402.451 59.455C400.988 50.7533 395.193 43.502 387.948 43.502C380.69 43.502 376.34 50.7533 377.803 59.455C379.266 68.1566 385.048 75.408 392.299 75.408C398.1 75.408 403.895 68.1566 402.451 59.455Z" fill="#810070"/>
<path d="M337.189 168.225L361.843 143.571C376.34 155.173 393.762 162.424 412.609 162.424C457.561 162.424 493.825 126.161 493.825 81.2088C493.812 36.2504 457.561 0 412.603 0C367.657 0 331.388 36.2568 331.388 81.2153C331.388 101.519 338.633 118.916 350.241 131.975L325.58 156.636C329.931 160.98 334.282 165.338 337.189 168.225ZM425.655 55.1039H441.602V39.1574H447.403V55.1104H463.363V60.9115H447.403V76.871H441.602V60.905H425.655V55.1039ZM389.399 82.6591C389.399 81.2088 389.399 79.7586 390.862 78.3083C389.399 78.3083 389.399 78.3083 387.968 78.3083C376.359 78.3083 367.657 69.6067 367.657 59.4547C367.657 49.3028 379.253 40.6012 390.862 40.6012H416.954L411.153 44.952H402.451C408.252 46.4088 411.153 53.6601 411.153 60.905C411.153 66.7061 408.252 71.0569 403.895 75.4078C399.544 78.3083 398.094 79.7586 398.094 82.6591C398.094 85.5597 402.451 89.9105 405.345 91.3608C412.59 95.7116 414.047 101.513 414.047 108.764C414.047 118.909 405.345 127.618 387.948 127.618C373.452 127.618 360.393 121.816 360.393 111.665C360.393 101.513 371.989 92.811 386.492 92.811C387.948 92.811 389.386 92.811 390.842 92.811C390.842 88.4667 389.399 85.5661 389.399 82.6591Z" fill="#810070"/>
<path d="M412.603 333.563C393.756 333.563 374.903 340.808 361.837 352.417L337.189 327.756C334.282 332.107 329.931 334.994 327.037 337.895L351.698 362.556C340.096 377.046 332.845 394.468 332.845 413.322C332.845 458.274 369.114 494.537 414.066 494.537C459.012 494.537 495.288 458.274 495.288 413.322C493.812 368.364 457.562 333.563 412.603 333.563ZM389.399 451.036H373.446V400.27H389.399V451.036ZM382.147 393.031C376.346 393.031 372.002 388.674 372.002 384.317C372.002 379.966 376.353 375.615 382.147 375.615C387.942 375.615 392.293 379.966 392.293 384.317C390.843 390.124 387.949 393.031 382.147 393.031ZM454.661 451.036H435.808V424.937C435.808 417.692 432.914 413.335 427.1 413.335C422.749 413.335 419.855 416.235 418.398 419.136C418.398 420.606 418.398 422.043 418.398 423.493V451.055H400.995C400.995 451.055 400.995 404.646 400.995 400.289H418.398V407.54C419.855 404.646 425.656 398.839 434.357 398.839C445.953 398.839 454.661 406.084 454.661 422.043V451.036Z" fill="#810070"/>
<path d="M157.355 327.768L132.7 352.429C118.198 340.82 100.794 333.575 81.9409 333.575C36.9824 333.575 0.725586 369.845 0.725586 414.784C0.725586 459.742 36.9824 496.006 81.9409 496.006C126.893 496.006 163.156 459.742 163.156 414.784C163.156 395.93 155.905 377.083 144.303 364.024L168.957 339.363C164.606 335.006 160.256 330.649 157.355 327.768ZM116.754 401.725C116.754 426.38 97.9004 453.928 64.5441 453.928C54.3986 453.928 44.2403 451.028 36.9889 445.214C38.4392 445.214 39.8894 445.214 41.3397 445.214C50.0414 445.214 57.2927 442.32 64.5441 437.969C57.2927 437.969 50.0414 432.168 47.1408 424.91C48.5911 424.91 50.0349 424.91 50.0349 424.91C51.4916 424.91 52.9354 424.91 54.3922 424.91C45.6841 423.447 39.8894 416.208 39.8894 407.507C42.79 408.963 45.6905 410.401 48.5911 410.401C44.2403 407.507 39.8894 401.699 39.8894 395.898C39.8894 393.01 41.3397 390.097 42.79 387.196C51.4916 398.805 64.5376 406.05 80.4906 406.05C80.4906 404.587 80.4906 403.156 80.4906 401.699C80.4906 391.547 89.1987 382.846 99.3442 382.846C105.145 382.846 109.496 385.74 112.403 388.647C116.754 387.19 121.105 385.746 124.005 384.296C122.549 388.647 119.648 391.541 115.297 394.435C119.648 394.435 122.549 392.978 125.449 391.541C122.549 395.892 119.648 398.786 116.747 400.242C116.754 400.268 116.754 400.268 116.754 401.725Z" fill="#810070"/>
<path d="M81.9409 162.431C100.794 162.431 119.642 155.18 132.7 143.577L157.355 168.232C160.256 163.881 164.606 160.987 167.507 158.087L142.846 133.432C154.448 118.929 161.699 101.526 161.699 82.6723C161.699 37.7139 125.443 1.45703 80.4841 1.45703C35.5321 1.45703 0.725586 37.7139 0.725586 82.6723C0.725586 126.168 36.9824 162.431 81.9409 162.431ZM63.0873 68.1567H71.789V59.455C71.789 47.8528 76.1398 40.6015 90.6425 40.6015H102.245V55.1042H94.9933C89.1923 55.1042 89.1923 56.5545 89.1923 60.9053V68.1567H102.245L100.794 82.6594H87.729V123.267H70.3258V82.6594H61.6306V68.1567H63.0873V68.1567Z" fill="#810070"/>
<path d="M321.243 288.598C319.78 285.71 316.886 284.241 315.442 284.241C302.389 279.89 290.794 277.002 277.741 272.645C276.291 272.645 273.39 269.751 273.39 263.943C273.39 261.036 273.39 259.586 270.496 259.586C269.033 259.586 270.496 259.586 269.033 258.136C267.589 252.335 267.589 249.428 267.589 247.984C267.589 246.54 269.033 246.527 269.033 245.083C273.39 239.282 274.834 230.587 274.834 227.68C274.834 227.68 276.291 227.68 276.291 226.223C277.741 223.323 277.741 223.323 277.741 218.965C279.204 216.078 279.204 211.727 276.291 211.727C274.834 213.177 274.834 211.727 274.834 208.826V191.423C274.834 185.622 270.477 181.278 267.589 179.827C263.226 176.92 261.788 175.47 260.331 175.47C258.875 174.02 258.875 172.57 260.331 171.119C261.782 169.675 263.225 169.675 263.225 168.219C263.225 168.219 263.225 168.219 261.769 168.219C260.312 168.219 251.623 169.682 247.273 171.119C240.021 172.57 232.77 175.47 226.962 179.827C222.611 182.721 219.711 187.072 219.711 192.886C219.711 195.774 219.711 204.482 219.711 210.29C219.711 211.753 219.711 213.19 218.261 211.753C213.91 211.753 216.81 217.554 216.81 218.991C216.81 221.892 218.261 223.349 219.704 226.249C219.704 227.706 221.161 227.706 221.161 227.706C222.611 232.057 224.062 240.758 226.962 245.109C226.962 245.109 228.419 246.566 228.419 248.01C228.419 250.91 228.419 255.261 226.962 258.162C226.962 258.162 226.962 259.618 225.512 259.618C222.611 259.618 222.611 261.069 222.611 263.969C222.611 268.32 219.711 272.677 218.261 272.677C211.009 275.565 189.262 282.823 182.004 284.273C177.653 285.736 176.203 287.174 174.752 288.624L167.501 306.027C196.5 306.027 211.009 323.43 241.465 329.231H255.968C286.423 324.881 308.171 306.027 328.481 306.027L321.243 288.598Z" fill="#810070"/>
</g>
<defs>
<clipPath id="clip0_90_208">
<rect width="496" height="496" fill="white"/>
</clipPath>
</defs>
</svg>
